<svg width="720" height="957" viewBox="0 0 720 957" fill="none" xmlns="http://www.w3.org/2000/svg">
<path d="M-514.002 86.1342L-255.069 297.555L-134.944 531.077L253.585 623.304L377.14 787.793L818.035 782.152L924.727 1042.57" stroke="#BBD2E5"/>
<path d="M-719.889 0.461197L-460.956 211.882L-340.831 445.404L47.6981 537.631L171.253 702.12L612.148 696.479L718.84 956.899" stroke="#BBD2E5"/>
<path d="M-523.806 82.0546L-264.873 293.476L-144.749 526.997L243.781 619.225L367.335 783.713L808.231 778.072L914.923 1038.49" stroke="#BBD2E5"/>
<path d="M-533.61 77.9749L-274.677 289.396L-154.553 522.917L233.977 615.145L357.531 779.634L798.427 773.993L905.119 1034.41" stroke="#BBD2E5"/>
<path d="M-543.414 73.8952L-284.481 285.316L-164.357 518.838L224.173 611.065L347.727 775.554L788.622 769.913L895.314 1030.33" stroke="#BBD2E5"/>
<path d="M-553.218 69.8156L-294.285 281.237L-174.161 514.758L214.368 606.986L337.923 771.474L778.818 765.833L885.51 1026.25" stroke="#BBD2E5"/>
<path d="M-563.023 65.7359L-304.089 277.157L-183.965 510.678L204.564 602.906L328.119 767.395L769.014 761.754L875.706 1022.17" stroke="#BBD2E5"/>
<path d="M-572.827 61.6562L-313.894 273.077L-193.769 506.599L194.76 598.826L318.315 763.315L759.21 757.674L865.902 1018.09" stroke="#BBD2E5"/>
<path d="M-582.631 57.5766L-323.698 268.998L-203.573 502.519L184.956 594.747L308.511 759.235L749.406 753.594L856.098 1014.01" stroke="#BBD2E5"/>
<path d="M-592.435 53.4969L-333.502 264.918L-213.377 498.439L175.152 590.667L298.706 755.156L739.602 749.515L846.294 1009.94" stroke="#BBD2E5"/>
<path d="M-602.239 49.4172L-343.306 260.838L-223.182 494.36L165.348 586.587L288.902 751.076L729.798 745.435L836.49 1005.86" stroke="#BBD2E5"/>
<path d="M-612.043 45.3376L-353.11 256.759L-232.986 490.28L155.544 582.508L279.098 746.996L719.993 741.355L826.686 1001.78" stroke="#BBD2E5"/>
<path d="M-621.847 41.2579L-362.914 252.679L-242.79 486.2L145.739 578.428L269.294 742.917L710.189 737.276L816.881 997.696" stroke="#BBD2E5"/>
<path d="M-631.651 37.1782L-372.718 248.599L-252.594 482.121L135.935 574.348L259.49 738.837L700.385 733.196L807.077 993.616" stroke="#BBD2E5"/>
<path d="M-641.456 33.0985L-382.523 244.52L-262.398 478.041L126.131 570.269L249.686 734.757L690.581 729.116L797.273 989.537" stroke="#BBD2E5"/>
<path d="M-651.26 29.0189L-392.327 240.44L-272.202 473.961L116.327 566.189L239.882 730.678L680.777 725.037L787.469 985.457" stroke="#BBD2E5"/>
<path d="M-661.064 24.9392L-402.131 236.36L-282.006 469.882L106.523 562.109L230.078 726.598L670.973 720.957L777.665 981.378" stroke="#BBD2E5"/>
<path d="M-670.868 20.8595L-411.935 232.281L-291.811 465.802L96.7188 558.03L220.273 722.518L661.169 716.877L767.861 977.298" stroke="#BBD2E5"/>
<path d="M-680.672 16.7799L-421.739 228.201L-301.615 461.722L86.9147 553.95L210.469 718.439L651.365 712.798L758.057 973.218" stroke="#BBD2E5"/>
<path d="M-690.476 12.7002L-431.543 224.121L-311.419 457.643L77.1105 549.87L200.665 714.359L641.56 708.718L748.252 969.138" stroke="#BBD2E5"/>
<path d="M-700.28 8.62054L-441.347 220.042L-321.223 453.563L67.3064 545.791L190.861 710.279L631.756 704.638L738.448 965.059" stroke="#BBD2E5"/>
<path d="M-710.085 4.54086L-451.151 215.962L-331.027 449.483L57.5023 541.711L181.057 706.2L621.952 700.559L728.644 960.979" stroke="#BBD2E5"/>
</svg>
